<?xml version="1.0" encoding="utf-8"?>
<!-- Generator: Adobe Illustrator 25.4.1, SVG Export Plug-In . SVG Version: 6.00 Build 0)  -->
<svg version="1.1" id="Layer_1" xmlns="http://www.w3.org/2000/svg" xmlns:xlink="http://www.w3.org/1999/xlink" x="0px" y="0px"
	 viewBox="0 0 512 512" style="enable-background:new 0 0 512 512;" xml:space="preserve">
<style type="text/css">
	.st0{fill:#FFFFFF;}
</style>
<path class="st0" d="M384,149.3c0,11.8-9.6,21.3-21.3,21.3c-11.8,0-21.3-9.6-21.3-21.3s9.6-21.3,21.3-21.3
	C374.4,128,384,137.6,384,149.3z M298.7,192c-11.8,0-21.3,9.6-21.3,21.3c0,11.8,9.6,21.3,21.3,21.3c11.8,0,21.3-9.6,21.3-21.3
	C320,201.6,310.4,192,298.7,192z M234.7,256c-11.8,0-21.3,9.6-21.3,21.3s9.6,21.3,21.3,21.3s21.3-9.6,21.3-21.3S246.4,256,234.7,256
	z M509.1,63.1l-1.6,4.5c-32,88.9-62.8,173.5-123.5,248.6v3.8c-0.1,66.1-28,129.1-76.8,173.5c-12.8,11.8-29.5,18.4-46.9,18.5
	c-37.7-0.1-68.2-30.7-68.3-68.4v-24.6c-15.7-5.1-30.1-13.8-41.8-25.4l-0.8-0.8l-48.9,48.9c-8.5,8.2-22,8-30.2-0.5
	c-8-8.3-8-21.4,0-29.6l48.9-48.9l-0.8-0.8C106.7,350.1,98,335.7,92.9,320H71.7C32.1,320,0,287.9,0,248.3c0-18.6,7.2-36.4,20-49.9
	c45.1-46.3,107.4-71.8,172-70.4h3.8C270.9,67.3,355.4,36.5,444.3,4.5l4.6-1.6c24.3-8.9,51.3,3.5,60.2,27.9
	C513,41.2,513,52.6,509.1,63.1z M71.7,277.3h15.7c1.6-18.8,8.2-36.8,19-52.3c11.9-17.1,24.8-33.6,38.6-49.2
	c-35.8,7.4-68.5,25.4-93.9,51.8c-5.4,5.5-8.5,12.9-8.5,20.7C42.7,264.3,55.7,277.3,71.7,277.3z M334.9,368
	c-15.3,13.4-31.3,25.9-48,37.5c-15.4,10.7-33.5,17.2-52.2,18.7v19.3c0,14.2,11.5,25.7,25.7,25.7c6.8-0.1,13.2-2.7,18.2-7.4
	C306.1,436.8,325.7,404.2,334.9,368z M468,44c-1.2-1.3-3-1.7-4.6-1l-4.6,1.7C355.4,81.9,266.2,114,189.4,190.9
	c-17.6,18.2-33.7,37.8-48,58.7c-17.9,25.5-14.9,60.1,7.1,82.2l31.8,31.8c22,22,56.7,25,82.1,7.1c20.9-14.3,40.5-30.3,58.7-48
	c76.8-76.8,109-166.1,146.3-269.5l1.6-4.5C469.7,47.1,469.3,45.2,468,44z"/>
</svg>
