<?xml version="1.0" encoding="utf-8"?>
<!-- Generator: Adobe Illustrator 25.4.1, SVG Export Plug-In . SVG Version: 6.00 Build 0)  -->
<svg version="1.1" id="Outline" xmlns="http://www.w3.org/2000/svg" xmlns:xlink="http://www.w3.org/1999/xlink" x="0px" y="0px"
	 viewBox="0 0 512 512" style="enable-background:new 0 0 512 512;" xml:space="preserve">
<style type="text/css">
	.st0{fill:#1E7BB8;}
</style>
<path class="st0" d="M226.1,271.1c-8.4-8.3-8.4-21.8-0.1-30.2c0,0,0.1-0.1,0.1-0.1l97.9-97.7c8.4-8.3,8.4-21.8,0.1-30.2
	c0,0-0.1-0.1-0.1-0.1c-8.3-8.3-21.8-8.3-30.1,0l-97.9,97.9c-25,25-25,65.5,0,90.5l97.9,97.9c4,3.9,9.3,6.2,14.9,6.2
	c5.7,0,11.1-2.2,15.1-6.2c8.4-8.3,8.4-21.8,0.1-30.2c0,0-0.1-0.1-0.1-0.1L226.1,271.1z"/>
</svg>
