<?xml version="1.0" encoding="utf-8"?>
<!-- Generator: Adobe Illustrator 25.4.1, SVG Export Plug-In . SVG Version: 6.00 Build 0)  -->
<svg version="1.1" id="Layer_1" xmlns="http://www.w3.org/2000/svg" xmlns:xlink="http://www.w3.org/1999/xlink" x="0px" y="0px"
	 viewBox="0 0 512 512" style="enable-background:new 0 0 512 512;" xml:space="preserve">
<style type="text/css">
	.st0{fill:#FFFFFF;}
</style>
<path class="st0" d="M256,341.3c9.9,0,19.7-2.3,28.6-6.7l42.7-21.3c21.7-10.8,35.5-33,35.4-57.3v-63.3c0.1-24.3-13.6-46.5-35.4-57.2
	l-42.7-21.3c-18-9-39.2-9-57.2,0l-42.7,21.3c-21.7,10.8-35.5,33-35.4,57.2V256c-0.1,24.3,13.6,46.5,35.4,57.3l42.7,21.3
	C236.3,339,246.1,341.3,256,341.3z M192,256v-63.3c0-2.2,0.4-4.3,1.1-6.4l46.5,23.3c10.3,5.2,22.5,5.2,32.8,0l46.5-23.3
	c0.7,2.1,1.1,4.2,1.1,6.4V256c0,8.1-4.5,15.5-11.8,19.1l-42.7,21.3c-6,3-13.1,3-19.1,0l-42.7-21.3C196.5,271.5,192,264.1,192,256z
	 M405.3,469.3h-57.8l74.4-68.7c91.6-91.6,91.6-240.2,0-331.9s-240.2-91.6-331.9,0s-91.6,240.2,0,331.9c0.2,0.2,74.4,68.7,74.4,68.7
	h-57.8c-11.8,0-21.3,9.6-21.3,21.3s9.6,21.3,21.3,21.3h298.7c11.8,0,21.3-9.6,21.3-21.3C426.7,478.9,417.1,469.3,405.3,469.3z
	 M120.2,98.9c74.8-75.2,196.4-75.4,271.5-0.6s75.4,196.4,0.6,271.5l-85,78.5c-29,27.3-74.4,27.2-103.2-0.4l-83.9-77.6
	C45.4,295.4,45.4,173.9,120.2,98.9z"/>
</svg>
