<svg id="Layer_1" data-name="Layer 1" xmlns="http://www.w3.org/2000/svg" viewBox="0 0 442.205 442.205">
  <defs>
    <style>
      .cls-1 {
        fill: #0071b2;
        fill-rule: evenodd;
      }
    </style>
  </defs>
  <title>logo трезвыйростов ai</title>
  <g>
    <path class="cls-1" d="M225.229,245.234c8.459-8.8,48.843-50.908,56.9-54.957L416.87,324.052c-7.413,8.424-51.531,51.475-57.118,55.173L225.229,245.234Zm20.146-95.755c4.438,8.085,13.366,15.25,19.034,22.609l-55.977,55.863-38.62-38.06c-7.318,2.257-14.2,9.151-16.269,16.205l37.806,38.417c-33.589,33.889-61.027,59.5-73.078,72.8-3.619,3.993,14.274,20.7,18.973,16.333,13.461-12.5,34.761-36.4,70.949-71.373l62.738,61.79-115.705,116.7c2.316,7.276,9.168,14.148,16.164,16.249l41.352-40.7,74.725,74.117c9.705,10.027,25.767,12.892,37.18,4.719-7.9-11.556-77.209-78.708-93.1-96.672l55.954-56.9L402.253,455.331c7.276-2.317,14.148-9.169,16.248-16.164-9.363-10.888-32.559-34.615-39.082-42.64L433.6,341.406c8.279,6.463,16.365,16.652,25.267,21.709,11.676-30.221-3.054-31.979-5.67-40.694,8.436-11.118,16.663-22.342,5.337-38.548l-23.4,22.893-136.2-135.7c5.849-6.385,16.331-14.646,20.111-21.718-18.6-6.994-22.022-7.84-36.906,4.421C273.291,146.49,275.85,141.3,245.375,149.479Z" transform="translate(-63.164 -100.796)"/>
    <path class="cls-1" d="M200,363.92c-57.432-63.021,55.863-62.939,0,0Zm-.612-38.462a7.918,7.918,0,1,0,8.241,7.661A7.957,7.957,0,0,0,199.391,325.458Z" transform="translate(-63.164 -100.796)"/>
    <path class="cls-1" d="M284.267,100.8c122.111,0,221.1,98.991,221.1,221.1S406.378,543,284.267,543s-221.1-98.991-221.1-221.1,98.991-221.1,221.1-221.1Zm0,22.677c-109.587,0-198.425,88.838-198.425,198.425S174.68,520.323,284.267,520.323,482.692,431.485,482.692,321.9,393.854,123.473,284.267,123.473Z" transform="translate(-63.164 -100.796)"/>
  </g>
</svg>
