<svg id="Layer_1" data-name="Layer 1" xmlns="http://www.w3.org/2000/svg" viewBox="0 0 443.632 443.586">
  <defs>
    <style>
      .cls-1 {
        fill: #0071b2;
        fill-rule: evenodd;
      }
    </style>
  </defs>
  <title>logo</title>
  <g>
    <path class="cls-1" d="M482.545,338.154c-6.458,57.205-22.953,93.411-65.661,132.807-37.333,34.438-96.823,54.8-147.221,48.874-59.055-6.942-91.048-24.5-132.056-66.342-35.266-35.982-54.293-98.033-49.043-147.466C100.036,198,192.026,113.268,302.58,125.133c106.942,11.477,192.377,103.083,179.965,213.021Zm25.295-32.875q-.467-5.321-1.2-10.677C489.753,172.486,381.853,86.818,258.783,102.718c-58.034,7.5-106.343,32.148-144.055,77.761A225.358,225.358,0,0,0,64.207,304.947v36.63q.386,4.619.968,9.23C78.34,454.5,165.492,535.687,266.991,544.4h36.285q5.355-.462,10.734-1.2c103.7-14.34,184.884-98.931,193.83-200.477Z" transform="translate(-64.207 -100.818)"/>
    <path class="cls-1" d="M225.229,245.234c8.459-8.8,48.843-50.908,56.9-54.957L416.87,324.052c-5.784,8.5-49.967,52.911-57.118,55.173L225.229,245.234Zm20.146-95.755c1.922,8.919,13.366,15.25,19.034,22.609l-55.977,55.863-38.62-38.06c-7.318,2.257-14.2,9.151-16.269,16.205l37.806,38.417-61.473,62.023c-6.571,6.553-20.456,16.047-9.977,26.518,11.82,11.81,28.209-11.671,45.974-29.436C179.84,289.65,193.92,275,208.193,262.27l62.738,61.79-115.705,116.7c2.316,7.276,9.168,14.148,16.164,16.249l41.352-40.7,74.725,74.117c6.348,6.559,6.587,9.337,15.936,9.392,4.545.026,17.826-2.225,21.244-4.673-2.8-12.379-80.308-77.115-93.1-96.672l55.954-56.9L402.253,455.331c7.276-2.317,14.148-9.169,16.248-16.164-8.344-11-36.229-32.1-39.082-42.64L433.6,341.406c8.279,6.463,15.962,19.875,25.267,21.709,11.676-30.221-3.054-31.979-5.67-40.694,5.339-7.036,9.3-6.5,10.022-15.407.4-4.983-2.12-19.472-4.684-23.141l-23.4,22.893-136.2-135.7a130.282,130.282,0,0,1,9.945-10.488c8.928-8.689,8.007-5.018,10.166-11.23l-8.4-3.156c-21.223-4.394-22.693,2.785-28.51,7.577C273.291,146.49,275.85,141.3,245.375,149.479Z" transform="translate(-64.207 -100.818)"/>
    <path class="cls-1" d="M201.689,340.767l-.875-11.062c17.262-5.457,17.62,16.639.875,11.062Zm5.838,22.348,18.167-26.855c-4.957-18.74-22.748-25-33.646-10.255-6.346,8.584-2.528,12.688,2.487,19.959C199.109,352.6,200.914,358.461,207.526,363.115Z" transform="translate(-64.207 -100.818)"/>
  </g>
</svg>
