<?xml version="1.0" encoding="utf-8"?>
<!-- Generator: Adobe Illustrator 25.4.1, SVG Export Plug-In . SVG Version: 6.00 Build 0)  -->
<svg version="1.1" id="Layer_1" xmlns="http://www.w3.org/2000/svg" xmlns:xlink="http://www.w3.org/1999/xlink" x="0px" y="0px"
	 viewBox="0 0 512 512" style="enable-background:new 0 0 512 512;" xml:space="preserve">
<style type="text/css">
	.st0{fill:#FFFFFF;}
</style>
<path class="st0" d="M256,256c47.1,0,85.3-38.2,85.3-85.3S303.1,85.3,256,85.3s-85.3,38.2-85.3,85.3S208.9,256,256,256z M256,128
	c23.6,0,42.7,19.1,42.7,42.7s-19.1,42.7-42.7,42.7s-42.7-19.1-42.7-42.7S232.4,128,256,128z M440.7,195.3l-15.3-5.1
	c10.8-93.6-56.3-178.3-150-189.1C269,0.4,262.5,0,256,0C161.8,0,85.5,76.4,85.5,170.6c0,7.8,0.5,15.6,1.6,23.4
	c-20.4,3.8-39.3,13.4-54.4,27.7c-21.1,20-32.9,47.9-32.8,77v86.9c0.1,47.4,31.3,89,76.8,102.4l61.2,19.2c10.3,3.2,21,4.8,31.8,4.8
	c9.8,0,19.5-1.3,28.9-4L322,471.6c11-3,22.6-3,33.6,0l50.9,17.1c45.8,11.1,91.9-16.9,103.1-62.7c1.6-6.6,2.4-13.3,2.4-20.1V295.9
	C511.9,250.7,483.4,210.4,440.7,195.3L440.7,195.3z M165.5,80.3c49.8-50,130.6-50.1,180.6-0.4c0.1,0.1,0.2,0.2,0.4,0.4
	c49.8,50.1,49.9,131.1,0.2,181.3l-75.8,73.7c-8.2,8.1-21.4,8.1-29.6,0l-75.8-73.4C115.6,211.7,115.6,130.5,165.5,80.3z M469.3,405.8
	c0,13.1-6,25.5-16.3,33.5c-9.7,7.8-22.4,10.9-34.7,8.4l-50-16.8c-18.9-5.4-39-5.6-58-0.3L187,467c-11.9,3.3-24.4,3.1-36.1-0.6
	l-61.7-19.2c-27.4-7.9-46.4-33-46.4-61.6v-86.9c-0.1-17.4,7-34.1,19.6-46.1c9.8-9.3,22.2-15.3,35.6-17.2
	c8.6,21.3,21.4,40.7,37.7,56.9l76.1,73.7c24.7,24.2,64.3,24.2,89,0l76-73.9c17-17.1,30.2-37.6,38.7-60.2l11.5,3.8
	c25.5,9.1,42.5,33.2,42.5,60.3V405.8z"/>
</svg>
