<?xml version="1.0" encoding="utf-8"?>
<!-- Generator: Adobe Illustrator 25.4.1, SVG Export Plug-In . SVG Version: 6.00 Build 0)  -->
<svg version="1.1" id="Layer_1" xmlns="http://www.w3.org/2000/svg" xmlns:xlink="http://www.w3.org/1999/xlink" x="0px" y="0px"
	 viewBox="0 0 512 512" style="enable-background:new 0 0 512 512;" xml:space="preserve">
<style type="text/css">
	.st0{fill:#FFFFFF;}
</style>
<path class="st0" d="M298.4,130.3c-0.8,0.2-154.2,61.1-154.2,61.1c-30.3,11.8-45.3,46-33.5,76.2c6.6,16.8,20.5,29.7,37.7,34.9
	l50,12.5L215,369c9,22,30.4,36.4,54.2,36.4h0.9c24.2-0.3,45.6-15.5,54-38.1c0,0,57.5-152.9,57.6-153.6c9.6-36.5-12.2-73.8-48.7-83.4
	C321.6,127.3,309.7,127.3,298.4,130.3L298.4,130.3z M340.7,202l-56.5,150.3c-2.2,6.2-8.1,10.4-14.8,10.5c-2.1-0.3-11.2-0.6-14.4-8.1
	l-19.4-63.5c-2.2-7.2-8-12.7-15.2-14.5l-60.1-14.9c-8.5-2.9-13-12.1-10.2-20.6c1.6-4.6,5.1-8.2,9.6-9.9l150.6-59.7
	c8.4-2,17.3,0.6,23.3,6.8C340,184.4,342.6,193.4,340.7,202z M256,0C114.6,0,0,114.6,0,256s114.6,256,256,256s256-114.6,256-256
	C511.8,114.7,397.3,0.2,256,0z M256,469.3c-117.8,0-213.3-95.5-213.3-213.3S138.2,42.7,256,42.7S469.3,138.2,469.3,256
	C469.2,373.8,373.8,469.2,256,469.3z"/>
</svg>
