<?xml version="1.0" encoding="utf-8"?>
<!-- Generator: Adobe Illustrator 25.4.1, SVG Export Plug-In . SVG Version: 6.00 Build 0)  -->
<svg version="1.1" id="Layer_1" xmlns="http://www.w3.org/2000/svg" xmlns:xlink="http://www.w3.org/1999/xlink" x="0px" y="0px"
	 viewBox="0 0 512 512" style="enable-background:new 0 0 512 512;" xml:space="preserve">
<style type="text/css">
	.st0{fill:#FFFFFF;}
</style>
<path class="st0" d="M457.8,88.2c-8.9-51-53.2-88.3-105-88.2H159C107.1-0.1,62.7,37.2,53.9,88.3L1.6,386.9
	c-10.2,58,28.7,113.3,86.7,123.5c6.1,1.1,12.2,1.6,18.4,1.6h298.7c58.9,0,106.7-47.7,106.7-106.7c0-6.2-0.5-12.4-1.6-18.5
	L457.8,88.2z M454.4,446.5c-12.2,14.5-30.1,22.9-49.1,22.8H106.7c-35.3,0-64-28.7-64-64c0-3.7,0.3-7.4,1-11.1L95.9,95.6
	c5.4-30.6,32-53,63.1-52.9h193.8c31.1,0,57.6,22.3,63,52.9l52.5,298.7C471.6,412.9,466.5,432,454.4,446.5z M277.3,106.7v42.7
	c0,11.8-9.6,21.3-21.3,21.3c-11.8,0-21.3-9.6-21.3-21.3v-42.7c0-11.8,9.6-21.3,21.3-21.3C267.8,85.3,277.3,94.9,277.3,106.7z
	 M277.3,234.7v42.7c0,11.8-9.6,21.3-21.3,21.3c-11.8,0-21.3-9.6-21.3-21.3v-42.7c0-11.8,9.6-21.3,21.3-21.3
	C267.8,213.3,277.3,222.9,277.3,234.7z M277.3,362.7v42.7c0,11.8-9.6,21.3-21.3,21.3c-11.8,0-21.3-9.6-21.3-21.3v-42.7
	c0-11.8,9.6-21.3,21.3-21.3C267.8,341.3,277.3,350.9,277.3,362.7z"/>
</svg>
