<?xml version="1.0" encoding="utf-8"?>
<!-- Generator: Adobe Illustrator 25.4.1, SVG Export Plug-In . SVG Version: 6.00 Build 0)  -->
<svg version="1.1" id="Outline" xmlns="http://www.w3.org/2000/svg" xmlns:xlink="http://www.w3.org/1999/xlink" x="0px" y="0px"
	 viewBox="0 0 512 512" style="enable-background:new 0 0 512 512;" xml:space="preserve">
<style type="text/css">
	.st0{fill:#1E7BB8;}
</style>
<path class="st0" d="M328.5,210.8l-97.9-97.9c-8.3-8.3-21.8-8.3-30.1,0c-8.4,8.3-8.4,21.8-0.1,30.2c0,0,0.1,0.1,0.1,0.1l98.1,97.7
	c8.4,8.3,8.4,21.8,0.1,30.2c0,0-0.1,0.1-0.1,0.1l-98.1,97.7c-8.4,8.3-8.4,21.8-0.1,30.2c8.3,8.4,21.8,8.4,30.2,0.1l97.9-97.9
	C353.5,276.2,353.5,235.8,328.5,210.8z"/>
</svg>
