<?xml version="1.0" encoding="utf-8"?>
<!-- Generator: Adobe Illustrator 25.4.1, SVG Export Plug-In . SVG Version: 6.00 Build 0)  -->
<svg version="1.1" id="Layer_1" xmlns="http://www.w3.org/2000/svg" xmlns:xlink="http://www.w3.org/1999/xlink" x="0px" y="0px"
	 viewBox="0 0 512 512" style="enable-background:new 0 0 512 512;" xml:space="preserve">
<style type="text/css">
	.st0{fill:#FFFFFF;}
</style>
<path class="st0" d="M490.7,426.7c-11.8,0-21.3,9.6-21.3,21.3c0,7.3-14.5,21.3-37.3,21.3c-13,0.5-25.4-4.9-34-14.7
	c0.8-1.4,1.7-2.7,2.7-3.9c34.8-36.5,58.2-82.3,67.3-131.9c5.6-30.8-11.9-61.1-41.4-71.7V192c0-47.1-38.2-85.3-85.3-85.3V85.3
	C341.3,38.2,303.1,0,256,0s-85.3,38.2-85.3,85.3v21.3c-47.1,0-85.3,38.2-85.3,85.3v54.8c-29.9,10.3-47.7,40.9-42.1,72
	c9.4,49.6,33,95.5,68,131.9c1,1.3,2,2.6,2.8,4c-8.6,9.8-21.1,15.2-34.1,14.6c-23.2,0-37.3-14.8-37.3-21.3c0-11.8-9.6-21.3-21.3-21.3
	S0,436.2,0,448c0,34.7,36.7,64,80,64c21.6,0.2,42.5-7.4,58.9-21.3c33.9,28.3,83,28.4,117.1,0.3c34.1,28,83.4,27.9,117.3-0.3
	c16.4,13.9,37.1,21.4,58.6,21.3c43.4,0,80.1-29.3,80.1-64C512,436.2,502.4,426.7,490.7,426.7z M213.3,85.3
	c0-23.6,19.1-42.7,42.7-42.7s42.7,19.1,42.7,42.7v21.3h-85.3V85.3z M170.7,149.3h170.7c23.6,0,42.7,19.1,42.7,42.7v41l-107.8-35.4
	c-13.1-4.3-27.2-4.3-40.3,0L128,232.8V192C128,168.4,147.1,149.3,170.7,149.3z M197.3,469.3c-14.5,0.8-28.4-6.1-36.5-18.1
	c-4.4-10.7-10.5-20.5-18.1-29.3c-29.4-30.4-49.4-68.8-57.4-110.3c-2-10.6,4-21,14.1-24.6l135.2-44.2V448
	C234.7,455.3,220.1,469.3,197.3,469.3z M314.7,469.3c-23.2,0-37.3-14.8-37.3-21.3V242.9L411.8,287c10.2,3.6,16.2,14,14.2,24.6
	c-7.8,41.5-27.6,79.8-56.8,110.3c-7.6,8.7-13.7,18.7-18.1,29.4C343,463.4,329.2,470.2,314.7,469.3z"/>
</svg>
