<?xml version="1.0" encoding="utf-8"?>
<!-- Generator: Adobe Illustrator 25.4.1, SVG Export Plug-In . SVG Version: 6.00 Build 0)  -->
<svg version="1.1" id="Layer_1" xmlns="http://www.w3.org/2000/svg" xmlns:xlink="http://www.w3.org/1999/xlink" x="0px" y="0px"
	 viewBox="0 0 512 512" style="enable-background:new 0 0 512 512;" xml:space="preserve">
<style type="text/css">
	.st0{fill:#FFFFFF;}
</style>
<path class="st0" d="M512,256c0,11.8-9.6,21.3-21.3,21.3c-11.8,0-21.3-9.6-21.3-21.3C469.2,138.2,373.8,42.8,256,42.7
	c-11.8,0-21.3-9.6-21.3-21.3S244.2,0,256,0C397.3,0.2,511.8,114.7,512,256z M341.3,277.3c11.8,0,21.3-9.6,21.3-21.3
	c0-11.8-9.6-21.3-21.3-21.3h-48.6c-3.7-6.4-9-11.7-15.4-15.4v-69.9c0-11.8-9.6-21.3-21.3-21.3c-11.8,0-21.3,9.6-21.3,21.3v69.9
	C214.3,231,207.3,257,219,277.3c11.7,20.4,37.7,27.4,58.1,15.6c6.5-3.7,11.9-9.1,15.6-15.6H341.3z M39,144.7
	c-11.8,0-21.3,9.6-21.3,21.3s9.6,21.3,21.3,21.3s21.3-9.6,21.3-21.3S50.8,144.7,39,144.7z M42.7,256c0-11.8-9.6-21.3-21.3-21.3
	S0,244.2,0,256c0,11.8,9.6,21.3,21.3,21.3S42.7,267.8,42.7,256z M256,469.3c-11.8,0-21.3,9.6-21.3,21.3c0,11.8,9.6,21.3,21.3,21.3
	c11.8,0,21.3-9.6,21.3-21.3C277.3,478.9,267.8,469.3,256,469.3z M90,68.4c-11.8,0-21.3,9.6-21.3,21.3s9.6,21.3,21.3,21.3
	s21.3-9.6,21.3-21.3S101.8,68.4,90,68.4z M166,17.9c-11.8,0-21.3,9.6-21.3,21.3s9.6,21.3,21.3,21.3c11.8,0,21.3-9.6,21.3-21.3
	S177.7,17.9,166,17.9z M39,324.6c-11.8,0-21.3,9.6-21.3,21.3c0,11.8,9.6,21.3,21.3,21.3s21.3-9.6,21.3-21.3l0,0
	C60.3,334.2,50.8,324.6,39,324.6L39,324.6z M90,400.9c-11.8,0-21.3,9.6-21.3,21.3s9.6,21.3,21.3,21.3s21.3-9.6,21.3-21.3
	S101.8,400.9,90,400.9z M166,451.4c-11.8,0-21.3,9.6-21.3,21.3c0,11.8,9.6,21.3,21.3,21.3c11.8,0,21.3-9.6,21.3-21.3
	C187.3,460.9,177.7,451.4,166,451.4z M473,324.6c-11.8,0-21.3,9.6-21.3,21.3c0,11.8,9.6,21.3,21.3,21.3s21.3-9.6,21.3-21.3l0,0
	C494.4,334.2,484.8,324.6,473,324.6L473,324.6z M422,400.9c-11.8,0-21.3,9.6-21.3,21.3s9.6,21.3,21.3,21.3s21.3-9.6,21.3-21.3
	S433.7,400.9,422,400.9z M346,451.4c-11.8,0-21.3,9.6-21.3,21.3c0,11.8,9.6,21.3,21.3,21.3s21.3-9.6,21.3-21.3
	C367.4,460.9,357.8,451.4,346,451.4z"/>
</svg>
