<?xml version="1.0" encoding="utf-8"?>
<!-- Generator: Adobe Illustrator 25.4.1, SVG Export Plug-In . SVG Version: 6.00 Build 0)  -->
<svg version="1.1" id="Layer_1" xmlns="http://www.w3.org/2000/svg" xmlns:xlink="http://www.w3.org/1999/xlink" x="0px" y="0px"
	 viewBox="0 0 512 512" style="enable-background:new 0 0 512 512;" xml:space="preserve">
<style type="text/css">
	.st0{fill:#FFFFFF;}
</style>
<path class="st0" d="M298.7,384c-7.3,0-14.5,1.2-21.3,3.6V384c0-11.8,9.6-21.3,21.3-21.3c6.1,0,12,2.6,16,7.2
	c7.6,9,21,10.2,30.1,2.6c9-7.6,10.2-21,2.6-30.1c-0.2-0.3-0.4-0.5-0.7-0.8c-23.4-26.5-63.8-29-90.3-5.7
	c-13.8,12.1-21.7,29.6-21.7,48v64c0,35.3,28.7,64,64,64c22.1,0,42.6-11.4,54.3-30.1c12.1-19.5,13.1-43.8,2.6-64.2
	C344.5,396.6,322.5,383.5,298.7,384z M316.8,459.3c-6.2,10-19.4,13.1-29.4,6.8c-10-6.2-13.1-19.4-6.8-29.4c3.9-6.2,10.7-10,18.1-10
	c7.5-0.4,14.6,3.3,18.5,9.7C321.1,443.5,321,452.3,316.8,459.3z M448,320c-35.3,0-64,28.7-64,64v64c0,35.3,28.7,64,64,64
	s64-28.7,64-64v-64C512,348.7,483.3,320,448,320z M469.3,448c0,11.8-9.6,21.3-21.3,21.3c-11.8,0-21.3-9.6-21.3-21.3v-64
	c0-11.8,9.6-21.3,21.3-21.3c11.8,0,21.3,9.6,21.3,21.3V448z M256,277.3h-85.3c-11.8,0-21.3-9.6-21.3-21.3c0-11.8,9.6-21.3,21.3-21.3
	h64v-85.3c0-11.8,9.6-21.3,21.3-21.3c11.8,0,21.3,9.6,21.3,21.3V256C277.3,267.8,267.8,277.3,256,277.3z M512,64v64
	c0,35.3-28.7,64-64,64h-64c-11.8,0-21.3-9.6-21.3-21.3c0-11.8,9.6-21.3,21.3-21.3h56.3C381.2,47.5,250.8,12.8,149,71.8
	S12.4,261.2,71.4,363.1c24.2,41.8,62,74.2,107,91.7c11,4.3,16.4,16.7,12.1,27.6c-4.3,11-16.7,16.4-27.6,12.1
	C31.2,443.2-33.9,294.7,17.4,163S217.2-33.8,349,17.6c49.2,19.2,91.2,53.1,120.4,97.1V64c0-11.8,9.6-21.3,21.3-21.3
	C502.4,42.7,512,52.2,512,64z"/>
</svg>
